<?xml version="1.0" encoding="UTF-8"?>
<svg xmlns="http://www.w3.org/2000/svg" viewBox="0 0 48.39 28.69">
  <defs>
    <style>.cls-1{fill:#59c4eb;fill-rule:evenodd;}</style>
  </defs>
  <title>hologate_icon_blue</title>
  <g id="Ebene_2" data-name="Ebene 2">
    <g id="Layer_1" data-name="Layer 1">
      <path class="cls-1" d="M24.19,11c-1.64,0-3.29.05-4.85.16-.68.05-1.38.12-2.06.21-1,.13-1.31.41-1.36,1.47a29,29,0,0,0,0,3c.05,1.06.37,1.34,1.36,1.47.68.1,1.38.17,2.06.21,1.56.11,3.21.16,4.85.16s3.29-.05,4.85-.16c.69,0,1.39-.11,2.07-.21,1-.13,1.3-.41,1.36-1.47a29,29,0,0,0,0-3c-.06-1.06-.37-1.34-1.36-1.47-.68-.09-1.38-.16-2.07-.21-1.56-.11-3.2-.16-4.85-.16m3.86-5.41C28,3.75,27.88,1.87,27.78,0c.84,0,1.69.06,2.52.1S32.09.19,33,.25l2.6.2c.82.08,1.63.16,2.43.26,1,.11,1.93.25,2.81.41C46,2,47.56,3.85,48.12,8.73c.16,1.89.25,3.72.27,5.62s-.11,3.72-.27,5.61c-.56,4.88-2.16,6.71-7.31,7.62-.88.15-1.82.29-2.81.41l-2.43.25-2.6.2q-1.32.09-2.67.15c-.83,0-1.68.08-2.52.1.1-1.87.19-3.75.27-5.62a105.41,105.41,0,0,0,10.62-.81c3.29-.46,3.86-1.35,4-5.3,0-.87.06-1.74.07-2.61s0-1.74-.07-2.62c-.19-3.95-.76-4.83-4-5.3a105.41,105.41,0,0,0-10.62-.81m-7.71,0a105.19,105.19,0,0,0-10.62.81c-3.29.47-3.86,1.35-4.05,5.3,0,.88-.06,1.74-.08,2.62s0,1.74.08,2.61c.19,3.95.76,4.84,4.05,5.3a105.19,105.19,0,0,0,10.62.81c.07,1.87.16,3.75.26,5.62-.84,0-1.68-.06-2.52-.1s-1.78-.09-2.66-.15l-2.6-.2L10.39,28c-1-.12-1.94-.26-2.81-.41C2.43,26.67.83,24.84.26,20,.1,18.07,0,16.25,0,14.35s.1-3.73.26-5.62C.83,3.85,2.43,2,7.58,1.12,8.45,1,9.4.82,10.39.71,11.18.61,12,.53,12.82.45s1.69-.14,2.6-.2S17.19.14,18.08.1,19.76,0,20.6,0c-.1,1.87-.19,3.75-.26,5.62"></path>
    </g>
  </g>
</svg>
