<?xml version="1.0" standalone="no"?>
<!DOCTYPE svg PUBLIC "-//W3C//DTD SVG 20010904//EN"
 "http://www.w3.org/TR/2001/REC-SVG-20010904/DTD/svg10.dtd">
<svg version="1.0" xmlns="http://www.w3.org/2000/svg"
 width="1536.000000pt" height="1536.000000pt" viewBox="0 0 1536.000000 1536.000000"
 preserveAspectRatio="xMidYMid meet">
<metadata>
Created by potrace 1.14, written by Peter Selinger 2001-2017
</metadata>
<g transform="translate(0.000000,1536.000000) scale(0.100000,-0.100000)"
fill="#000000" stroke="none">
<path d="M6196 12223 c-2 -2 -188 -12 -346 -19 -58 -3 -130 -6 -160 -8 -30 -2
-116 -7 -190 -10 -136 -7 -260 -13 -380 -21 -36 -2 -102 -7 -147 -10 -162 -10
-239 -15 -298 -20 -33 -3 -94 -7 -135 -10 -147 -10 -216 -15 -270 -20 -30 -3
-84 -8 -120 -11 -98 -8 -150 -13 -202 -19 -110 -12 -146 -16 -193 -20 -85 -8
-169 -17 -200 -20 -84 -9 -131 -15 -164 -19 -34 -5 -106 -14 -180 -22 -33 -3
-66 -8 -141 -19 -19 -3 -51 -8 -70 -11 -19 -2 -48 -7 -65 -9 -16 -3 -52 -8
-80 -11 -63 -8 -90 -12 -90 -14 0 -3 -39 -10 -85 -15 -25 -3 -54 -7 -65 -9
-29 -5 -95 -16 -130 -21 -35 -4 -99 -14 -135 -21 -14 -2 -40 -7 -59 -10 -18
-3 -41 -7 -50 -9 -9 -2 -52 -11 -96 -20 -44 -9 -107 -23 -140 -32 -33 -8 -68
-17 -77 -18 -51 -10 -215 -57 -231 -66 -10 -5 -22 -7 -27 -4 -6 4 -10 1 -10
-6 0 -7 -2 -10 -6 -7 -5 6 -130 -35 -141 -46 -4 -3 -13 -6 -21 -6 -8 0 -30 -7
-50 -16 -21 -9 -50 -22 -67 -29 -146 -65 -357 -178 -363 -196 -2 -5 -9 -9 -15
-9 -11 0 -54 -31 -137 -97 -133 -108 -310 -316 -397 -468 -52 -92 -126 -246
-139 -290 -2 -5 -17 -48 -34 -95 -17 -47 -33 -92 -35 -100 -2 -8 -4 -15 -5
-15 -1 0 -3 -7 -5 -15 -1 -8 -12 -51 -25 -94 -12 -43 -24 -88 -26 -100 -4 -20
-6 -30 -19 -88 -3 -13 -8 -36 -11 -52 -2 -16 -7 -32 -9 -36 -2 -3 -6 -28 -10
-56 -3 -27 -7 -56 -10 -64 -3 -13 -12 -65 -21 -125 -1 -11 -3 -20 -4 -20 -1 0
-3 -13 -4 -30 -5 -44 -17 -136 -21 -165 -2 -14 -7 -61 -10 -105 -3 -44 -7
-105 -10 -135 -6 -67 -14 -181 -20 -275 -2 -38 -7 -108 -10 -155 -7 -111 -13
-246 -22 -455 -9 -214 -9 -1156 0 -1370 19 -431 23 -501 32 -514 3 -5 1 -12
-5 -16 -6 -4 -7 -13 -2 -23 5 -9 8 -43 8 -74 -1 -32 1 -58 4 -58 3 0 6 -30 7
-68 1 -37 5 -96 7 -132 14 -172 17 -204 21 -233 3 -18 7 -57 9 -87 3 -31 7
-62 10 -70 3 -8 7 -33 10 -56 4 -39 9 -71 21 -139 3 -16 8 -46 11 -65 6 -42
12 -75 14 -75 2 0 3 -5 24 -101 8 -39 25 -104 36 -145 12 -41 23 -82 25 -92 2
-9 7 -22 10 -27 5 -9 8 -19 18 -65 2 -5 5 -14 8 -20 4 -5 12 -28 19 -50 39
-122 170 -378 252 -490 80 -111 274 -310 349 -360 8 -5 64 -43 124 -82 60 -40
114 -73 121 -73 7 0 14 -4 16 -8 7 -17 225 -115 373 -168 39 -14 77 -28 85
-31 14 -5 27 -9 55 -16 6 -1 15 -5 20 -9 10 -6 51 -18 220 -62 93 -25 361 -85
405 -91 25 -3 61 -10 110 -20 14 -3 45 -8 70 -11 25 -3 53 -8 62 -10 10 -2 26
-6 36 -8 11 -2 43 -8 73 -11 30 -4 65 -9 79 -12 14 -2 41 -5 60 -8 19 -2 46
-6 60 -9 14 -2 48 -7 77 -10 28 -3 57 -8 65 -10 7 -3 40 -7 73 -10 33 -3 73
-8 88 -11 16 -3 49 -8 75 -10 26 -3 67 -7 92 -10 52 -6 148 -15 205 -19 22 -2
63 -6 90 -10 28 -3 82 -8 120 -11 39 -3 86 -8 106 -11 20 -2 56 -7 80 -9 42
-5 65 -7 234 -20 39 -3 99 -8 135 -11 71 -6 146 -11 255 -19 39 -2 97 -7 130
-10 258 -21 367 -28 795 -50 58 -3 143 -7 190 -10 325 -18 399 -22 653 -30
l207 -7 -5 83 c-3 46 -7 131 -10 189 -2 58 -7 141 -9 185 -3 44 -8 132 -11
195 -3 63 -8 167 -11 230 -3 63 -7 156 -8 205 -1 50 -5 96 -9 102 -5 8 -3 13
3 13 6 0 8 5 4 11 -3 6 -8 59 -10 118 -2 58 -6 162 -9 231 -3 69 -7 147 -8
174 l-2 50 -50 2 c-27 2 -135 6 -240 9 -306 9 -377 12 -720 31 -71 4 -150 8
-175 9 -25 2 -45 4 -45 4 0 1 -39 4 -88 6 -48 2 -118 7 -155 10 -198 15 -232
18 -289 19 -35 0 -63 3 -63 6 0 3 -15 6 -32 6 -18 1 -69 4 -113 8 -44 3 -109
9 -145 12 -36 2 -83 7 -105 9 -22 3 -67 7 -100 10 -33 3 -78 8 -100 10 -22 3
-69 7 -105 11 -36 3 -81 8 -100 10 -105 12 -148 16 -180 19 -19 2 -35 4 -35 5
0 0 -20 3 -45 5 -87 8 -135 13 -165 18 -16 3 -61 8 -98 12 -37 3 -76 8 -85 10
-9 1 -46 6 -82 10 -36 3 -72 8 -80 10 -8 3 -33 7 -55 10 -35 4 -72 10 -180 30
-16 3 -48 10 -70 15 -22 6 -49 12 -60 14 -11 1 -27 6 -35 9 -12 5 -68 21 -112
33 -5 1 -10 3 -13 4 -3 1 -8 3 -12 5 -5 1 -21 7 -38 14 -16 6 -54 21 -82 32
-29 12 -53 25 -53 30 0 5 -4 8 -8 7 -10 -3 -105 56 -147 92 -16 14 -45 43 -65
64 -19 22 -43 48 -53 58 -9 10 -17 22 -17 27 0 5 -6 16 -13 23 -41 41 -156
325 -142 349 4 5 1 9 -5 9 -7 0 -10 6 -7 14 3 8 3 17 -1 20 -3 4 -7 17 -9 29
-2 12 -8 44 -13 70 -6 26 -13 71 -16 100 -3 29 -7 58 -9 65 -7 20 -19 151 -19
209 -1 29 -3 53 -6 53 -3 0 -6 15 -7 33 -1 48 -12 243 -17 312 -16 200 -20
303 -19 590 0 176 3 394 7 485 5 91 9 222 11 291 1 70 5 132 9 137 3 6 3 13
-2 15 -4 3 -6 23 -5 44 2 21 5 85 8 143 8 149 13 215 15 215 0 0 3 29 5 64 2
35 6 78 9 95 3 17 8 56 11 86 3 30 13 93 22 140 8 47 17 96 20 110 8 50 41
165 60 210 3 8 7 20 9 27 4 23 75 154 105 196 93 130 239 238 399 297 36 13
71 28 78 33 6 5 12 7 12 4 0 -4 19 1 43 9 23 9 51 17 62 20 11 2 47 10 80 18
33 9 71 17 85 20 14 2 54 9 90 16 72 13 105 18 165 25 22 3 51 7 65 9 14 3 50
8 81 11 31 3 65 7 75 9 11 2 53 7 94 11 41 4 84 9 95 11 11 2 45 6 75 9 30 3
73 8 95 10 97 11 133 15 185 20 30 3 73 7 95 10 22 2 65 7 95 10 30 3 73 8 96
10 23 3 74 7 115 10 41 2 74 5 74 5 0 3 129 14 285 25 36 3 90 7 120 10 30 3
84 7 120 9 36 2 97 7 135 10 71 6 171 13 323 21 46 3 88 7 93 11 5 3 9 0 9 -6
0 -7 5 -8 13 -3 6 4 39 9 72 10 33 1 60 2 60 3 0 0 38 3 85 5 294 13 407 17
500 20 58 2 105 4 105 5 0 0 47 2 105 4 58 2 109 4 113 5 4 0 8 25 7 54 0 28
2 113 6 187 3 74 7 174 8 222 0 49 5 88 9 88 4 0 3 9 -3 20 -6 11 -7 20 -3 20
4 0 8 35 9 78 1 70 5 169 19 437 2 50 7 140 10 200 3 61 7 153 10 205 3 52 7
135 9 183 l4 88 -170 -3 c-93 -2 -170 -4 -172 -5z"/>
<path d="M8825 12094 c4 -77 8 -164 10 -194 2 -30 7 -107 10 -170 6 -114 10
-181 21 -375 3 -55 7 -143 9 -195 2 -52 4 -95 5 -95 2 0 5 -91 14 -345 3 -91
6 -165 7 -165 0 0 2 -22 3 -50 2 -27 3 -52 4 -55 1 -4 26 -6 55 -7 46 -1 299
-9 532 -18 125 -5 346 -16 390 -21 41 -4 55 -5 78 -3 21 1 381 -22 547 -36 41
-3 104 -8 140 -10 101 -7 221 -18 350 -30 30 -3 84 -8 120 -10 36 -3 81 -7
100 -9 19 -2 71 -6 115 -10 44 -4 91 -9 105 -11 29 -5 103 -13 180 -20 30 -3
73 -7 95 -10 22 -3 60 -7 85 -10 25 -3 63 -7 85 -10 22 -2 63 -7 90 -10 28 -3
66 -7 85 -10 68 -9 125 -16 170 -20 25 -3 56 -7 70 -10 14 -3 45 -8 70 -11 25
-3 54 -8 65 -11 30 -6 57 -12 85 -16 14 -2 34 -7 45 -10 11 -3 32 -9 48 -12
65 -13 81 -16 89 -21 5 -3 24 -8 41 -11 18 -3 37 -8 42 -12 6 -4 28 -13 51
-19 53 -15 195 -85 253 -125 64 -43 170 -152 209 -212 61 -97 145 -311 157
-399 3 -20 7 -45 20 -106 3 -14 7 -41 10 -60 3 -19 7 -44 9 -55 4 -21 16 -125
22 -185 1 -19 5 -62 8 -95 3 -33 8 -97 10 -142 2 -45 7 -87 11 -93 3 -5 1 -10
-5 -10 -6 0 -8 -5 -5 -11 4 -5 9 -40 11 -77 2 -37 6 -107 10 -157 7 -109 9
-887 2 -932 -3 -21 -1 -33 6 -33 7 0 7 -3 1 -8 -6 -4 -11 -47 -12 -97 -6 -311
-13 -561 -18 -630 -4 -44 -8 -111 -10 -150 -2 -38 -6 -92 -10 -119 -3 -26 -8
-62 -10 -80 -8 -74 -16 -134 -21 -157 -3 -13 -7 -37 -10 -54 -10 -57 -13 -70
-29 -130 -31 -114 -115 -310 -144 -335 -3 -3 -19 -22 -34 -42 -78 -106 -226
-207 -391 -268 -30 -12 -57 -20 -58 -19 -2 1 -14 -3 -26 -10 -13 -7 -35 -15
-50 -17 -14 -3 -57 -14 -96 -24 -39 -10 -84 -21 -101 -24 -16 -3 -57 -9 -89
-15 -32 -6 -62 -8 -67 -6 -4 3 -9 1 -11 -5 -1 -5 -32 -11 -68 -14 -36 -3 -65
-5 -65 -6 0 -3 -30 -7 -85 -13 -30 -4 -80 -9 -110 -13 -30 -4 -72 -8 -92 -8
-21 -1 -38 -3 -38 -6 0 -5 -73 -12 -142 -14 -21 -1 -38 -3 -38 -6 0 -4 -10 -6
-22 -6 -21 -1 -106 -9 -188 -18 -19 -3 -66 -7 -105 -11 -38 -3 -89 -8 -112
-11 -24 -2 -67 -7 -95 -9 -29 -3 -69 -7 -88 -9 -45 -6 -202 -19 -260 -22 -25
-1 -45 -3 -45 -4 0 -2 -62 -7 -165 -14 -41 -3 -102 -7 -135 -10 -86 -7 -239
-18 -320 -23 -38 -2 -99 -6 -135 -8 -118 -7 -253 -15 -385 -21 -71 -3 -166 -7
-210 -9 -86 -4 -298 -12 -463 -17 -110 -3 -114 -5 -111 -63 1 -11 -2 -69 -6
-130 -3 -60 -8 -164 -10 -230 -2 -66 -5 -120 -5 -120 -1 0 -3 -36 -5 -80 -2
-44 -6 -143 -9 -220 -4 -77 -8 -170 -11 -206 -2 -37 -7 -127 -10 -200 -3 -74
-8 -163 -10 -199 -2 -36 -7 -127 -10 -202 l-6 -137 128 5 c70 2 157 6 193 9
36 2 153 6 260 10 107 3 233 8 280 11 47 3 91 5 98 5 6 -1 18 -1 25 -2 6 0 48
2 92 5 44 3 127 8 185 11 58 4 131 8 163 10 32 2 102 7 155 10 53 3 109 7 125
9 15 2 27 -2 27 -8 0 -8 2 -8 8 0 4 7 48 15 102 18 52 3 118 8 145 11 28 2 83
7 124 10 40 3 78 8 82 11 5 3 9 0 9 -6 0 -6 5 -8 10 -5 15 9 42 13 150 19 116
8 213 17 310 30 25 3 70 8 100 11 30 2 78 7 105 10 55 6 108 11 200 19 33 3
78 8 100 10 22 3 63 8 90 11 28 4 61 8 75 10 32 5 137 17 171 20 14 1 30 4 35
8 6 3 22 4 37 3 15 -2 30 0 33 5 3 5 18 7 35 5 16 -2 31 0 34 4 3 4 15 8 27 9
31 1 102 9 106 12 1 1 10 2 20 3 18 2 102 15 132 21 9 2 35 6 56 10 22 3 53 8
69 11 17 3 41 7 55 9 14 2 35 6 46 9 12 2 37 7 55 10 19 3 95 19 169 36 74 17
146 33 160 36 34 7 241 64 260 71 8 4 17 7 20 8 23 5 181 60 205 71 17 7 59
25 95 39 86 36 261 125 330 170 80 51 90 58 120 83 15 12 30 22 32 22 16 0
201 179 268 259 45 53 149 202 174 250 63 119 105 210 137 297 12 33 26 70 32
84 6 14 11 31 13 37 1 7 11 41 22 75 20 60 55 195 66 248 3 14 8 36 11 50 3
14 7 36 10 50 9 47 15 75 21 105 4 16 9 46 11 65 6 46 11 75 13 75 1 0 3 14 5
30 6 58 16 140 20 165 7 42 15 121 21 205 3 44 7 103 9 130 3 28 7 77 10 110
2 33 7 103 11 155 3 52 7 120 9 150 2 30 6 96 9 145 3 50 5 90 6 90 1 0 4 70
8 155 14 330 7 1183 -14 1580 -2 41 -6 127 -9 190 -3 63 -7 142 -10 175 -4 56
-7 103 -20 295 -6 86 -14 179 -20 230 -2 19 -6 62 -9 95 -2 34 -7 72 -11 85
-3 14 -8 45 -10 70 -3 25 -9 70 -15 100 -5 30 -12 73 -15 95 -4 22 -10 56 -15
76 -6 19 -11 48 -14 65 -2 16 -6 36 -9 44 -4 8 -8 29 -11 45 -2 17 -5 31 -6
33 -2 1 -4 7 -5 12 -1 6 -3 11 -5 13 -1 1 -3 13 -5 27 -1 14 -12 57 -24 95
-12 39 -24 79 -26 90 -3 11 -9 29 -14 40 -5 11 -17 43 -26 70 -21 60 -36 95
-83 195 -20 41 -36 77 -36 80 -1 3 -6 12 -11 20 -6 8 -17 28 -25 45 -20 39
-73 119 -82 123 -5 2 -8 9 -8 15 0 7 -14 27 -31 45 -16 17 -28 32 -25 32 6 0
-65 79 -130 144 -59 60 -142 131 -193 166 -20 13 -45 32 -55 42 -11 10 -25 18
-32 18 -6 0 -17 7 -24 15 -6 7 -33 25 -58 38 -26 13 -77 40 -113 60 -37 20
-70 33 -73 30 -3 -4 -6 -1 -6 5 0 7 -5 12 -10 12 -6 0 -29 8 -53 19 -77 34
-101 43 -212 81 -150 51 -328 104 -390 115 -11 2 -31 6 -45 10 -23 6 -43 11
-135 29 -16 4 -43 9 -60 13 -46 10 -101 20 -150 28 -11 2 -33 6 -50 9 -16 3
-43 8 -60 10 -16 3 -40 8 -52 10 -11 3 -43 8 -70 12 -26 3 -57 8 -68 10 -11 3
-36 7 -55 10 -19 3 -46 7 -60 9 -63 10 -179 27 -215 30 -22 3 -51 7 -64 9 -13
3 -49 8 -80 11 -31 3 -67 7 -81 10 -14 3 -54 8 -90 11 -36 3 -76 7 -90 10 -27
5 -95 12 -175 19 -27 3 -65 7 -85 9 -19 3 -64 8 -100 11 -36 4 -83 8 -105 11
-46 4 -140 14 -205 20 -94 9 -264 22 -365 29 -27 1 -50 3 -50 4 0 1 -36 4 -80
6 -44 2 -102 7 -130 9 -50 5 -179 15 -290 22 -189 11 -257 15 -321 18 -40 2
-77 6 -82 10 -6 3 -13 2 -17 -4 -4 -6 -11 -7 -17 -4 -11 7 -41 9 -263 19 -60
2 -153 7 -205 10 -152 9 -232 12 -458 20 l-213 7 6 -138z"/>
<path d="M7177 8734 c-1 -2 -96 -5 -209 -8 -114 -2 -211 -7 -217 -10 -5 -4
-12 -2 -16 4 -4 6 -11 7 -18 3 -6 -4 -50 -8 -97 -9 -47 -1 -85 -3 -85 -3 0 -1
-38 -3 -85 -6 -141 -7 -261 -15 -335 -21 -38 -4 -90 -8 -115 -9 -67 -5 -158
-14 -215 -21 -27 -3 -70 -8 -95 -9 -42 -3 -87 -9 -170 -21 -19 -3 -48 -7 -65
-10 -72 -9 -96 -15 -142 -30 -26 -9 -66 -25 -88 -37 -43 -21 -117 -96 -109
-109 3 -4 1 -8 -3 -8 -10 0 -40 -97 -48 -155 -10 -71 -15 -156 -19 -380 -2
-121 -5 -225 -6 -230 -1 -6 -2 -12 -1 -15 1 -3 4 -95 6 -205 5 -267 14 -367
36 -445 20 -69 57 -131 99 -165 25 -20 110 -66 110 -59 0 2 11 -1 25 -6 14 -5
36 -12 48 -14 86 -18 141 -27 178 -31 24 -2 55 -6 68 -9 13 -3 55 -8 95 -11
39 -4 85 -8 101 -10 89 -10 220 -21 365 -30 52 -3 122 -8 155 -10 168 -12 383
-21 692 -29 94 -2 176 -7 182 -10 5 -4 12 -2 16 4 4 7 12 7 25 0 10 -6 21 -6
24 -2 3 5 25 6 48 3 33 -5 823 -6 823 -1 0 0 95 3 210 6 356 9 370 10 382 17
6 4 14 3 18 -3 4 -6 11 -7 17 -4 5 3 49 8 96 10 48 2 121 6 162 8 41 3 129 7
195 11 206 10 263 15 380 30 17 2 55 7 85 10 30 3 66 8 80 11 38 7 81 13 125
19 166 23 264 63 325 133 21 24 42 57 45 73 4 16 10 29 14 29 4 0 8 6 8 13 1
12 7 44 18 97 27 122 26 992 0 1195 -12 89 -58 193 -102 228 -13 10 -29 24
-36 31 -27 27 -235 91 -274 85 -5 -1 -10 -1 -13 1 -8 2 -60 9 -115 15 -27 3
-68 7 -90 10 -22 3 -60 7 -85 10 -25 2 -70 7 -100 10 -30 3 -89 8 -130 11 -41
2 -91 7 -110 9 -93 10 -453 28 -790 41 -148 5 -1269 12 -1273 8z"/>
</g>
</svg>
