<?xml version="1.0" standalone="no"?>
<!DOCTYPE svg PUBLIC "-//W3C//DTD SVG 20010904//EN"
 "http://www.w3.org/TR/2001/REC-SVG-20010904/DTD/svg10.dtd">
<svg version="1.0" xmlns="http://www.w3.org/2000/svg"
 width="550.000000pt" height="550.000000pt" viewBox="0 0 550.000000 550.000000"
 preserveAspectRatio="xMidYMid meet">
<metadata>
Created by potrace 1.14, written by Peter Selinger 2001-2017
</metadata>
<g transform="translate(0.000000,550.000000) scale(0.100000,-0.100000)"
fill="#000000" stroke="none">
<path d="M2438 4105 c-1 -1 -68 -6 -148 -10 -158 -8 -178 -9 -293 -19 -104 -9
-165 -15 -207 -21 -19 -2 -57 -7 -85 -10 -393 -47 -814 -142 -1155 -260 -115
-40 -300 -150 -358 -214 -40 -43 -93 -122 -115 -171 -42 -91 -50 -150 -52
-370 -3 -218 2 -286 31 -445 19 -109 64 -252 114 -362 67 -148 181 -306 305
-422 194 -181 414 -295 707 -366 173 -41 253 -50 488 -50 303 0 473 40 617
147 104 76 225 129 340 147 84 13 247 6 328 -14 83 -20 194 -73 251 -120 80
-66 193 -113 324 -135 84 -15 376 -19 490 -7 187 19 420 66 535 109 269 100
517 298 669 535 115 179 207 422 222 588 3 33 9 84 13 114 5 30 8 154 6 275
-2 236 -11 289 -65 396 -30 58 -93 151 -117 170 -167 136 -360 218 -740 314
-196 49 -283 67 -483 100 -52 9 -106 18 -120 21 -14 2 -47 7 -75 10 -27 3 -63
7 -80 10 -44 7 -168 20 -275 30 -64 6 -124 10 -285 21 -88 6 -781 14 -787 9z
m882 -779 c132 -7 214 -12 315 -21 28 -2 82 -7 120 -10 39 -3 88 -8 110 -11
73 -9 109 -13 160 -19 28 -3 64 -7 80 -10 17 -2 50 -7 75 -10 25 -3 101 -14
170 -26 69 -11 139 -22 155 -24 17 -2 59 -11 95 -20 36 -9 78 -19 93 -22 35
-7 51 -32 68 -103 13 -59 17 -232 7 -290 -21 -106 -106 -262 -175 -320 -164
-137 -276 -192 -433 -214 -63 -9 -429 -12 -1445 -11 -1511 2 -1433 -1 -1596
69 -204 88 -353 255 -390 436 -12 57 -18 290 -8 290 3 0 11 29 18 64 l13 64
60 17 c32 9 69 18 81 21 12 2 33 6 47 8 14 3 41 8 60 10 19 3 44 7 55 10 11 2
41 6 66 10 25 4 57 9 70 11 13 2 40 6 59 9 19 2 58 8 85 12 28 3 59 8 70 10
10 2 49 6 85 10 36 3 72 7 80 9 8 1 49 6 90 10 41 4 89 9 105 11 17 1 71 6
120 9 50 4 106 9 125 10 19 2 116 7 215 11 99 3 181 7 182 8 6 5 799 -2 913
-8z"/>
</g>
</svg>
